<svg aria-hidden="true" style="position: absolute; width: 0; height: 0; overflow: hidden;" version="1.1" xmlns="http://www.w3.org/2000/svg" xmlns:xlink="http://www.w3.org/1999/xlink">
<defs>
<symbol id="icon-benefits-1" viewBox="0 0 32 32">
<path fill="#000" style="fill: var(--color1, #000)" d="M13.597 0.456l8.306 8.316 0.088-0.088c0.17-0.167 0.403-0.27 0.661-0.27 0.25 0 0.477 0.097 0.646 0.256l-0-0 0.963 0.963c0.337 0.337 0.348 0.85 0.092 1.207l-0.004 0.008-0.158 0.212 6.797 6.797c0.607 0.607 0.607 1.578 0 2.185l-10.406 10.406c-0.607 0.607-1.578 0.607-2.185 0l-4.907-4.907c-0.171 0.215-0.434 0.352-0.728 0.352-0.257 0-0.49-0.105-0.658-0.274l-2.869-2.869c-0.167-0.17-0.27-0.403-0.27-0.661 0-0.25 0.097-0.477 0.256-0.646l-0 0 0.007-0.008 0.085-0.084-8.306-8.306c-0.607-0.607-0.607-1.578 0-2.185l10.406-10.406c0.607-0.607 1.578-0.607 2.185 0v0.001zM20.86 9.813l-1.938-1.937c-0.119-0.122-0.285-0.199-0.469-0.199s-0.35 0.076-0.469 0.198l-3.95 3.951c-0.122 0.121-0.197 0.289-0.197 0.474s0.075 0.353 0.197 0.474l1.93 1.93 0.673-0.673-1.727-1.727 3.542-3.553 1.731 1.737 0.676-0.676zM15.258 15.41l-1.935-1.935c-0.119-0.122-0.285-0.198-0.469-0.198s-0.35 0.076-0.469 0.198l-3.962 3.962c-0.265 0.254-0.265 0.673 0 0.938l1.933 1.933 0.68-0.68-1.732-1.726 3.553-3.542 1.726 1.725 0.675-0.674zM8.079 6.834l3.95 3.95c0.265 0.265 0.684 0.265 0.938-0.011l3.95-3.95c0.122-0.117 0.199-0.281 0.199-0.463 0-0 0-0 0-0v0h0.011c0-0.166-0.066-0.342-0.199-0.474l-3.95-3.95c-0.121-0.123-0.289-0.198-0.474-0.198s-0.354 0.076-0.474 0.198l-0 0-3.95 3.961c-0.265 0.254-0.265 0.673 0 0.938zM2.485 12.428l3.95 3.95c0.265 0.265 0.684 0.265 0.938 0l3.95-3.95c0.123-0.117 0.199-0.281 0.199-0.464 0-0.004-0-0.008-0-0.012v0.001h0.011c0-0.177-0.066-0.342-0.199-0.474l-3.95-3.95c-0.119-0.122-0.285-0.199-0.469-0.199s-0.35 0.076-0.469 0.198l-3.962 3.962c-0.265 0.254-0.265 0.673 0 0.938zM10.135 22.088l2.606 2.607 10.633-14.389-0.723-0.723-12.516 12.504z"></path>
<path fill="#fd9222" style="fill: var(--color2, #fd9222)" d="M13.597 0.456l8.306 8.316 0.088-0.088c0.17-0.167 0.403-0.27 0.661-0.27 0.25 0 0.477 0.097 0.646 0.256l-0-0 0.963 0.963c0.337 0.337 0.348 0.85 0.092 1.207l-0.004 0.008-0.158 0.212 6.797 6.797c0.607 0.607 0.607 1.578 0 2.185l-10.406 10.406c-0.607 0.607-1.578 0.607-2.185 0l-4.907-4.907c-0.171 0.215-0.434 0.352-0.728 0.352-0.257 0-0.49-0.105-0.658-0.274l-2.869-2.869c-0.167-0.17-0.27-0.403-0.27-0.661 0-0.25 0.097-0.477 0.256-0.646l-0 0 0.007-0.008 0.085-0.084-8.306-8.306c-0.607-0.607-0.607-1.578 0-2.185l10.406-10.406c0.607-0.607 1.578-0.607 2.185 0v0.001zM20.86 9.813l-1.938-1.937c-0.119-0.122-0.285-0.199-0.469-0.199s-0.35 0.076-0.469 0.198l-3.95 3.951c-0.122 0.121-0.197 0.289-0.197 0.474s0.075 0.353 0.197 0.474l1.93 1.93 0.673-0.673-1.727-1.727 3.542-3.553 1.731 1.737 0.676-0.676zM15.258 15.41l-1.935-1.935c-0.119-0.122-0.285-0.198-0.469-0.198s-0.35 0.076-0.469 0.198l-3.962 3.962c-0.265 0.254-0.265 0.673 0 0.938l1.933 1.933 0.68-0.68-1.732-1.726 3.553-3.542 1.726 1.725 0.675-0.674zM8.079 6.834l3.95 3.95c0.265 0.265 0.684 0.265 0.938-0.011l3.95-3.95c0.122-0.117 0.199-0.281 0.199-0.463 0-0 0-0 0-0v0h0.011c0-0.166-0.066-0.342-0.199-0.474l-3.95-3.95c-0.121-0.123-0.289-0.198-0.474-0.198s-0.354 0.076-0.474 0.198l-0 0-3.95 3.961c-0.265 0.254-0.265 0.673 0 0.938zM2.485 12.428l3.95 3.95c0.265 0.265 0.684 0.265 0.938 0l3.95-3.95c0.123-0.117 0.199-0.281 0.199-0.464 0-0.004-0-0.008-0-0.012v0.001h0.011c0-0.177-0.066-0.342-0.199-0.474l-3.95-3.95c-0.119-0.122-0.285-0.199-0.469-0.199s-0.35 0.076-0.469 0.198l-3.962 3.962c-0.265 0.254-0.265 0.673 0 0.938zM10.135 22.088l2.606 2.607 10.633-14.389-0.723-0.723-12.516 12.504z"></path>
</symbol>
<symbol id="icon-benefits-2" viewBox="0 0 32 32">
<path fill="#fd9222" style="fill: var(--color2, #fd9222)" d="M16 0.762c-8.381 0-15.238 6.857-15.238 15.238s6.857 15.238 15.238 15.238 15.238-6.857 15.238-15.238-6.857-15.238-15.238-15.238zM16 28.191c-6.705 0-12.191-5.486-12.191-12.191s5.486-12.191 12.191-12.191 12.191 5.486 12.191 12.191-5.486 12.191-12.191 12.191z"></path>
<path fill="#fd9222" style="fill: var(--color2, #fd9222)" d="M17.981 14.477h-3.961c-0.762 0-1.371-0.61-1.371-1.371 0-0.762 0.609-1.371 1.371-1.371h5.638c0.914 0 1.525-0.61 1.525-1.525s-0.61-1.523-1.525-1.523h-2.133v-1.371c0-0.914-0.61-1.523-1.525-1.523s-1.523 0.609-1.523 1.523v1.371h-0.457c-2.44 0.002-4.417 1.979-4.419 4.419v0c0.003 2.439 1.98 4.416 4.419 4.418h3.809c0.762 0 1.371 0.61 1.371 1.371 0 0.762-0.609 1.371-1.371 1.371h-5.638c-0.914 0-1.525 0.61-1.525 1.525s0.61 1.523 1.525 1.523h2.286v1.371c0 0.914 0.609 1.523 1.523 1.523s1.525-0.609 1.525-1.523v-1.371h0.457c2.439-0.003 4.416-1.98 4.418-4.419v-0c-0.003-2.439-1.98-4.416-4.419-4.418h-0z"></path>
</symbol>
<symbol id="icon-benefits-3" viewBox="0 0 32 32">
<path fill="#fd9222" style="fill: var(--color2, #fd9222)" d="M15.452 14.106c-0.733-0.884-1.177-2.030-1.177-3.279 0-0.001 0-0.002 0-0.003v0c0-4.324 5.181-8.642 10.362-8.642 2.861 0.001 5.18 2.321 5.181 5.182v0c0 5.182-4.317 10.364-8.646 10.364-0.001 0-0.002 0-0.003 0-1.249 0-2.395-0.444-3.287-1.184l0.009 0.007-12.758 12.761c-0.308 0.287-0.723 0.463-1.178 0.463-0.955 0-1.73-0.775-1.73-1.73 0-0.456 0.176-0.87 0.464-1.179l-0.001 0.001 12.764-12.761z"></path>
</symbol>
<symbol id="icon-burger" viewBox="0 0 32 32">
<path stroke-linejoin="round" stroke-linecap="round" stroke-miterlimit="4" stroke-width="2.5" d="M4 16h24M4 8h24M4 24h24"></path>
</symbol>
<symbol id="icon-chocolate" viewBox="0 0 32 32">
<path fill="#fcf1e0" style="fill: var(--color3, #fcf1e0)" d="M3.944 20.076l10.777-17.424 0.64-0.675 8.235 5.491 0.057 3.315 2.009 3.28-8.88 14.076-12.839-8.063z"></path>
<path fill="none" stroke="#fd9222" style="stroke: var(--color2, #fd9222)" stroke-linejoin="round" stroke-linecap="round" stroke-miterlimit="4" stroke-width="2.6667" d="M21.635 23.88l-14.187-8.864M11.361 8.599l14.185 8.864M10.629 25.864l11.736-19.249M27.176 14.788c-3.040-1.899-4.233-3.383-2.277-6.591l-9.627-6.016-11.735 19.251 14.187 8.864 9.453-15.507z"></path>
</symbol>
<symbol id="icon-flag" viewBox="0 0 32 32">
<path fill="#ffd700" style="fill: var(--color4, #ffd700)" d="M31.832 4.058h-31.59v23.509h31.59v-23.509z"></path>
<path fill="#0057b7" style="fill: var(--color5, #0057b7)" d="M0.243 4.058h31.589v11.754h-31.59v-11.754z"></path>
</symbol>
<symbol id="icon-hero-scroll" viewBox="0 0 32 32">
<path d="M17.486 18.933c-0.38 0.381-0.905 0.618-1.486 0.618s-1.106-0.236-1.486-0.617l-0-0-9.6-9.616c-0.384-0.414-0.931-0.673-1.538-0.673-1.158 0-2.096 0.938-2.096 2.096 0 0.603 0.254 1.146 0.662 1.529l0.001 0.001 9.616 9.618c1.137 1.135 2.707 1.838 4.441 1.838s3.304-0.702 4.441-1.838l9.618-9.618c0.376-0.379 0.608-0.901 0.608-1.477 0-1.158-0.939-2.096-2.096-2.096-0.582 0-1.108 0.237-1.488 0.62l-0 0-9.595 9.616z"></path>
</symbol>
<symbol id="icon-instagram" viewBox="0 0 32 32">
<path fill="none"  stroke-linejoin="round" stroke-linecap="round" stroke-miterlimit="4" stroke-width="2.6667" d="M22.667 2.667h-13.333c-3.682 0-6.667 2.985-6.667 6.667v0 13.333c0 3.682 2.985 6.667 6.667 6.667v0h13.333c3.682 0 6.667-2.985 6.667-6.667v0-13.333c0-3.682-2.985-6.667-6.667-6.667v0z"></path>
<path fill="none"  stroke-linejoin="round" stroke-linecap="round" stroke-miterlimit="4" stroke-width="2.6667" d="M21.333 15.16c0.037 0.235 0.058 0.506 0.058 0.782 0 2.946-2.388 5.334-5.334 5.334-2.67 0-4.881-1.962-5.272-4.522l-0.004-0.030c-0.037-0.235-0.058-0.506-0.058-0.782 0-2.946 2.388-5.334 5.334-5.334 2.67 0 4.881 1.962 5.272 4.522l0.004 0.030z"></path>
<path fill="none"  stroke-linejoin="round" stroke-linecap="round" stroke-miterlimit="4" stroke-width="2.6667" d="M21.333 15.16c0.037 0.235 0.058 0.506 0.058 0.782 0 2.946-2.388 5.334-5.334 5.334-2.67 0-4.881-1.962-5.272-4.522l-0.004-0.030c-0.037-0.235-0.058-0.506-0.058-0.782 0-2.946 2.388-5.334 5.334-5.334 2.67 0 4.881 1.962 5.272 4.522l0.004 0.030zM23.333 8.667h0.013M23.333 8.667h0.013"></path>
</symbol>
<symbol id="icon-mastercard" viewBox="0 0 32 32">
<path fill="#ed0006" style="fill: var(--color6, #ed0006)" d="M16 22.834c-1.581 1.367-3.656 2.199-5.925 2.199-0.003 0-0.007 0-0.010 0h0.001c-5.054 0-9.15-4.12-9.15-9.204s4.096-9.204 9.15-9.204c2.264 0 4.337 0.828 5.935 2.199 1.581-1.367 3.656-2.199 5.925-2.199 0.003 0 0.007 0 0.010 0h-0c5.054 0 9.15 4.12 9.15 9.204 0 5.083-4.096 9.204-9.15 9.204-0.003 0-0.006 0-0.009 0-2.27 0-4.345-0.832-5.937-2.209l0.012 0.010z"></path>
<path fill="#f9a000" style="fill: var(--color7, #f9a000)" d="M16 22.834c1.973-1.698 3.215-4.199 3.215-6.99 0-0.005 0-0.011 0-0.016v0.001c0-0.004 0-0.010 0-0.015 0-2.791-1.242-5.291-3.203-6.98l-0.012-0.010c1.581-1.367 3.656-2.199 5.926-2.199 0.003 0 0.007 0 0.010 0h-0c5.054 0 9.15 4.12 9.15 9.204 0 5.083-4.096 9.204-9.15 9.204-0.003 0-0.006 0-0.009 0-2.27 0-4.345-0.832-5.937-2.209l0.012 0.010z"></path>
<path fill="#ff5e00" style="fill: var(--color8, #ff5e00)" d="M16 22.834c1.973-1.698 3.215-4.199 3.215-6.99 0-0.005 0-0.011 0-0.016v0.001c0-0.004 0-0.010 0-0.015 0-2.791-1.242-5.291-3.203-6.98l-0.012-0.010c-1.973 1.698-3.215 4.199-3.215 6.99 0 0.005 0 0.011 0 0.016v-0.001c0 0.004 0 0.010 0 0.015 0 2.791 1.242 5.291 3.203 6.98l0.012 0.010z"></path>
</symbol>
<symbol id="icon-play" viewBox="0 0 32 32">
<path d="M10.909 24v-15.273l14.545 7.636-14.545 7.636z"></path>
<path stroke-linejoin="miter" stroke-linecap="butt" stroke-miterlimit="4" stroke-width="0.7273" d="M31.636 16c0 8.636-7.001 15.636-15.636 15.636s-15.636-7.001-15.636-15.636c0-8.636 7.001-15.636 15.636-15.636s15.636 7.001 15.636 15.636z"></path>
</symbol>
<symbol id="icon-twitter" viewBox="0 0 32 32">
<path fill="none" stroke-linejoin="round" stroke-linecap="round" stroke-miterlimit="4" stroke-width="2.6667" d="M30.667 4c-1.2 0.856-2.591 1.552-4.084 2.013l-0.103 0.027c-1.101-1.261-2.712-2.053-4.507-2.053-3.299 0-5.973 2.674-5.973 5.973 0 0.028 0 0.056 0.001 0.084l-0-0.004v1.333c-0.109 0.003-0.238 0.005-0.367 0.005-2.331 0-4.53-0.561-6.471-1.555l0.080 0.037c-2.093-1.053-4.56-3.563-5.908-5.48 0 0-4.667 12.953 7.333 18.287-2.442 1.677-5.462 2.679-8.716 2.679-0.217 0-0.433-0.004-0.648-0.013l0.031 0.001c12 6.667 26.667 0 26.667-15.333 0-0.372-0.037-0.741-0.107-1.107 1.323-1.305 2.293-2.963 2.758-4.822l0.015-0.071z"></path>
</symbol>
<symbol id="icon-x-close" viewBox="0 0 32 32">
<path stroke-linejoin="round" stroke-linecap="round" stroke-miterlimit="4" stroke-width="2.2857" d="M24 8l-16 16M8 8l16 16"></path>

<symbol id="icon-logo-1" viewBox="0 0 285 32">
<path fill="#111" style="fill: var(--color1, #111)" d="M7.885 24.288c-0.912 0-1.8-0.088-2.664-0.264-0.884-0.163-1.665-0.396-2.408-0.701l0.080 0.029c-0.671-0.274-1.248-0.588-1.784-0.957l0.032 0.021 1.584-3c0.528 0.368 1.088 0.688 1.68 0.96 0.608 0.256 1.24 0.456 1.896 0.6 0.591 0.122 1.271 0.192 1.968 0.192h0c0.72 0 1.336-0.080 1.848-0.24 0.528-0.16 0.928-0.384 1.2-0.672 0.288-0.288 0.432-0.64 0.432-1.056 0-0.007 0-0.016 0-0.025 0-0.371-0.178-0.701-0.453-0.909l-0.003-0.002c-0.304-0.24-0.704-0.44-1.2-0.6-0.48-0.176-1.016-0.344-1.608-0.504s-1.192-0.344-1.8-0.552c-0.626-0.237-1.164-0.511-1.666-0.836l0.034 0.020c-0.479-0.338-0.873-0.762-1.166-1.253l-0.010-0.019c-0.304-0.512-0.456-1.152-0.456-1.92 0-1.152 0.312-2.152 0.936-3 0.64-0.848 1.536-1.504 2.688-1.968 1.152-0.48 2.504-0.72 4.056-0.72 1.136 0 2.208 0.128 3.216 0.384 1.008 0.24 1.872 0.592 2.592 1.056l-1.464 2.976c-0.612-0.416-1.324-0.745-2.087-0.949l-0.049-0.011c-0.721-0.213-1.549-0.336-2.406-0.336-0.006 0-0.013 0-0.019 0h0.001c-0.752 0-1.4 0.088-1.944 0.264-0.528 0.176-0.936 0.424-1.224 0.744-0.253 0.273-0.408 0.64-0.408 1.043 0 0.005 0 0.009 0 0.014v-0.001c0 0.4 0.144 0.728 0.432 0.984 0.304 0.24 0.704 0.448 1.2 0.624 0.496 0.16 1.040 0.32 1.632 0.48s1.184 0.344 1.776 0.552c0.592 0.208 1.136 0.472 1.632 0.792s0.896 0.728 1.2 1.224c0.304 0.48 0.456 1.088 0.456 1.824 0 1.152-0.32 2.16-0.96 3.024-0.64 0.848-1.544 1.512-2.712 1.992-1.152 0.464-2.512 0.696-4.080 0.696zM16.613 24l3.36-16.8h3.912l-3.359 16.8h-3.913zM23.769 24l3.36-16.8h3.168l4.776 11.904-1.68-0.024 9.312-11.88h3.336l-3.336 16.8h-3.648l2.232-11.256h0.744l-7.416 9.48h-1.728l-3.96-9.504 0.72 0.072-2.232 11.208h-3.648zM45.971 24l3.36-16.8h6.792c2.096 0 3.712 0.464 4.848 1.392 1.152 0.912 1.728 2.192 1.728 3.84 0 1.408-0.328 2.64-0.984 3.696-0.656 1.040-1.6 1.84-2.832 2.4-1.216 0.56-2.664 0.84-4.344 0.84h-5.448l2.064-1.776-1.272 6.408h-3.912zM51.059 18.048l-1.368-1.848h5.016c1.28 0 2.272-0.288 2.976-0.864 0.72-0.592 1.080-1.448 1.080-2.568 0-0.816-0.272-1.416-0.816-1.8-0.544-0.4-1.312-0.6-2.304-0.6h-4.728l2.064-1.896-1.92 9.576zM62.595 24l3.36-16.8h3.912l-2.736 13.632h8.424l-0.648 3.168h-12.312zM78.8 24l1.368-6.912 0.433 2.448-4.947-12.336h3.888l3.768 9.432-2.352 0.024 7.611-9.456h4.007l-9.84 12.36 1.32-2.472-1.368 6.912h-3.888zM105.536 24.288c-0.026 0-0.057 0-0.088 0-1.269 0-2.485-0.229-3.608-0.648l0.071 0.023c-1.118-0.436-2.075-1.054-2.883-1.827l0.003 0.003c-0.798-0.767-1.445-1.684-1.898-2.705l-0.022-0.055c-0.448-1.056-0.672-2.216-0.672-3.48s0.224-2.424 0.672-3.48c0.475-1.076 1.122-1.993 1.917-2.757l0.003-0.003c0.812-0.764 1.778-1.375 2.845-1.78l0.059-0.020c1.104-0.432 2.312-0.648 3.624-0.648 1.456 0 2.768 0.256 3.936 0.768 1.191 0.499 2.19 1.252 2.966 2.195l0.010 0.013-2.496 2.304c-0.576-0.656-1.216-1.144-1.92-1.464-0.659-0.318-1.434-0.504-2.252-0.504-0.018 0-0.037 0-0.055 0l0.003-0c-0.020-0-0.043-0-0.067-0-0.752 0-1.472 0.141-2.134 0.398l0.040-0.014c-0.665 0.259-1.232 0.634-1.704 1.104l0-0c-0.48 0.48-0.856 1.048-1.128 1.704-0.243 0.625-0.385 1.349-0.385 2.106 0 0.027 0 0.055 0.001 0.082l-0-0.004c0 0.8 0.128 1.528 0.384 2.184 0.272 0.656 0.648 1.224 1.128 1.704s1.048 0.848 1.704 1.104c0.621 0.243 1.341 0.384 2.094 0.384 0.023 0 0.047-0 0.070-0l-0.004 0c0.832 0 1.6-0.16 2.304-0.48 0.704-0.336 1.344-0.84 1.92-1.512l2.496 2.304c-0.789 0.959-1.787 1.718-2.926 2.213l-0.050 0.019c-1.168 0.512-2.488 0.768-3.96 0.768zM125.897 7.2h3.888v16.8h-3.888v-16.8zM118.267 24h-3.888v-16.8h3.888v16.8zM126.187 17.112h-8.208v-3.288h8.208v3.288zM141.201 24.288c-1.328 0-2.56-0.216-3.696-0.648-1.135-0.436-2.108-1.054-2.933-1.828l0.005 0.004c-0.798-0.767-1.445-1.684-1.898-2.705l-0.022-0.055c-0.425-0.994-0.672-2.151-0.672-3.366 0-0.032 0-0.063 0-0.095l-0 0.005c0-1.248 0.224-2.4 0.673-3.456 0.477-1.079 1.133-1.997 1.938-2.756l0.004-0.004c0.82-0.77 1.793-1.388 2.867-1.803l0.061-0.021c1.055-0.411 2.275-0.648 3.552-0.648 0.034 0 0.068 0 0.101 0l-0.005-0c1.328 0 2.544 0.216 3.648 0.648 1.12 0.432 2.088 1.040 2.904 1.824 0.811 0.763 1.467 1.681 1.923 2.707l0.021 0.053c0.464 1.040 0.696 2.192 0.696 3.456 0 0.023 0 0.050 0 0.076 0 1.23-0.256 2.4-0.718 3.46l0.022-0.056c-0.477 1.079-1.133 1.997-1.94 2.756l-0.004 0.004c-0.814 0.76-1.779 1.37-2.844 1.78l-0.060 0.020c-1.104 0.432-2.312 0.648-3.624 0.648zM141.177 20.976c0.752 0 1.44-0.128 2.064-0.384 1.285-0.514 2.281-1.518 2.773-2.775l0.011-0.033c0.258-0.624 0.409-1.349 0.409-2.109 0-0.026-0-0.052-0.001-0.079l0 0.004c0-0.8-0.136-1.528-0.408-2.184-0.259-0.665-0.634-1.232-1.104-1.704l0 0c-0.456-0.47-1.008-0.845-1.624-1.093l-0.032-0.011c-0.603-0.243-1.301-0.384-2.033-0.384-0.019 0-0.039 0-0.058 0l0.003-0c-0.752 0-1.448 0.128-2.088 0.384-0.645 0.268-1.195 0.641-1.656 1.104l-0 0c-0.48 0.48-0.856 1.048-1.128 1.704-0.243 0.625-0.385 1.349-0.385 2.106 0 0.027 0 0.055 0.001 0.082l-0-0.004c0 0.784 0.128 1.512 0.384 2.184 0.272 0.656 0.64 1.224 1.104 1.704 0.48 0.48 1.040 0.848 1.68 1.104s1.336 0.384 2.088 0.384zM160.612 24.288c-0.026 0-0.057 0-0.088 0-1.269 0-2.485-0.229-3.608-0.648l0.071 0.023c-1.118-0.436-2.075-1.054-2.883-1.827l0.003 0.003c-0.798-0.767-1.445-1.684-1.898-2.705l-0.022-0.055c-0.448-1.056-0.672-2.216-0.672-3.48s0.224-2.424 0.672-3.48c0.475-1.076 1.122-1.993 1.917-2.757l0.003-0.003c0.812-0.764 1.778-1.375 2.845-1.78l0.059-0.020c1.104-0.432 2.312-0.648 3.624-0.648 1.456 0 2.768 0.256 3.936 0.768 1.191 0.499 2.19 1.252 2.965 2.195l0.011 0.013-2.496 2.304c-0.576-0.656-1.216-1.144-1.92-1.464-0.659-0.318-1.434-0.504-2.252-0.504-0.018 0-0.037 0-0.055 0l0.003-0c-0.020-0-0.043-0-0.066-0-0.752 0-1.472 0.141-2.134 0.398l0.040-0.014c-0.665 0.259-1.232 0.634-1.704 1.104l0-0c-0.48 0.48-0.856 1.048-1.128 1.704-0.243 0.625-0.385 1.349-0.385 2.106 0 0.027 0 0.055 0.001 0.082l-0-0.004c0 0.8 0.128 1.528 0.384 2.184 0.272 0.656 0.648 1.224 1.128 1.704s1.048 0.848 1.704 1.104c0.621 0.243 1.341 0.384 2.094 0.384 0.023 0 0.047-0 0.070-0l-0.004 0c0.832 0 1.6-0.16 2.304-0.48 0.704-0.336 1.344-0.84 1.92-1.512l2.496 2.304c-0.789 0.959-1.787 1.718-2.926 2.213l-0.050 0.019c-1.168 0.512-2.488 0.768-3.96 0.768zM177.261 24.288c-1.328 0-2.56-0.216-3.696-0.648-1.135-0.436-2.108-1.054-2.933-1.828l0.005 0.004c-0.798-0.767-1.445-1.684-1.898-2.705l-0.022-0.055c-0.425-0.994-0.672-2.151-0.672-3.366 0-0.032 0-0.063 0-0.095l-0 0.005c0-1.248 0.224-2.4 0.672-3.456 0.477-1.079 1.133-1.997 1.94-2.756l0.004-0.004c0.82-0.77 1.793-1.388 2.867-1.803l0.061-0.021c1.055-0.411 2.275-0.648 3.552-0.648 0.034 0 0.068 0 0.101 0l-0.005-0c1.328 0 2.544 0.216 3.648 0.648 1.12 0.432 2.088 1.040 2.904 1.824 0.811 0.763 1.467 1.681 1.923 2.707l0.021 0.053c0.464 1.040 0.696 2.192 0.696 3.456 0 0.023 0 0.050 0 0.076 0 1.23-0.256 2.4-0.718 3.46l0.022-0.056c-0.477 1.079-1.133 1.997-1.94 2.756l-0.004 0.004c-0.814 0.76-1.779 1.37-2.844 1.78l-0.060 0.020c-1.104 0.432-2.312 0.648-3.624 0.648zM177.237 20.976c0.752 0 1.44-0.128 2.064-0.384 1.285-0.514 2.281-1.518 2.773-2.775l0.011-0.033c0.258-0.624 0.409-1.349 0.409-2.109 0-0.026-0-0.052-0.001-0.079l0 0.004c0-0.8-0.136-1.528-0.408-2.184-0.259-0.665-0.634-1.232-1.104-1.704l0 0c-0.456-0.47-1.008-0.845-1.624-1.093l-0.032-0.011c-0.603-0.243-1.301-0.384-2.033-0.384-0.019 0-0.039 0-0.058 0l0.003-0c-0.752 0-1.448 0.128-2.088 0.384-0.645 0.268-1.195 0.641-1.656 1.104l-0 0c-0.48 0.48-0.856 1.048-1.128 1.704-0.243 0.625-0.385 1.349-0.385 2.106 0 0.027 0 0.055 0.001 0.082l-0-0.004c0 0.784 0.128 1.512 0.384 2.184 0.272 0.656 0.64 1.224 1.104 1.704 0.48 0.48 1.040 0.848 1.68 1.104s1.336 0.384 2.088 0.384zM188.631 24v-16.8h3.888v13.632h8.424v3.168h-12.312zM200.281 24l7.488-16.8h3.84l7.512 16.8h-4.080l-6.144-14.832h1.536l-6.168 14.832h-3.984zM204.025 20.4l1.032-2.952h8.64l1.056 2.952h-10.728zM222.78 24v-13.632h-5.376v-3.168h14.64v3.168h-5.376v13.632h-3.888zM236.992 13.968h8.088v3.024h-8.088v-3.024zM237.28 20.88h9.144v3.12h-13.008v-16.8h12.696v3.12h-8.832v10.56z"></path>
<path fill="#fcf1e0" style="fill: var(--color2, #fcf1e0)" d="M257.277 20.076l10.777-17.424 0.64-0.675 8.235 5.491 0.057 3.315 2.009 3.28-8.88 14.076-12.839-8.063z"></path>
<path fill="none" stroke="#fd9222" style="stroke: var(--color3, #fd9222)" stroke-linejoin="round" stroke-linecap="round" stroke-miterlimit="4" stroke-width="2.6667" d="M274.968 23.88l-14.185-8.864M264.695 8.599l14.185 8.864M263.963 25.864l11.736-19.249M280.509 14.788c-3.040-1.899-4.233-3.383-2.277-6.591l-9.625-6.016-11.736 19.251 14.185 8.864 9.453-15.507z"></path>
</symbol>
 <symbol id="icon-menu-hamburger" viewBox="0 0 47 32">
<path stroke-linejoin="round" stroke-linecap="round" stroke-miterlimit="4" stroke-width="4.3636" d="M1.96 29.154h42.965M1.96 15.615h42.965M1.96 2.077h42.965"></path>
</symbol>
<symbol id="icon-hero-scroll-1" viewBox="0 0 56 32">
<path  d="M30.604 21.132c-0.665 0.669-1.585 1.083-2.602 1.083s-1.937-0.414-2.602-1.082l-0-0-16.8-16.828c-0.672-0.725-1.629-1.177-2.692-1.177-2.026 0-3.668 1.642-3.668 3.668 0 1.055 0.445 2.006 1.158 2.675l0.002 0.002 16.828 16.832c1.99 1.988 4.738 3.218 7.774 3.218s5.784-1.23 7.774-3.218l16.828-16.832c0.658-0.663 1.065-1.576 1.065-2.584 0-2.025-1.642-3.667-3.667-3.667-1.017 0-1.938 0.414-2.602 1.083l-0 0-16.8 16.828z"></path>
</symbol>
<symbol id="icon-chocolate-logo-1" viewBox="0 0 32 32">
<path fill="#fcf1e0" style="fill: var(--color3, #fcf1e0)" d="M3.944 20.076l10.777-17.424 0.64-0.675 8.235 5.491 0.057 3.315 2.009 3.28-8.88 14.076-12.839-8.063z"></path>
<path fill="none" stroke="#fd9222" style="stroke: var(--color1, #fd9222)" stroke-linejoin="round" stroke-linecap="round" stroke-miterlimit="4" stroke-width="2.6667" d="M21.635 23.88l-14.187-8.864M11.361 8.599l14.185 8.864M10.629 25.864l11.736-19.249M27.176 14.788c-3.040-1.899-4.233-3.383-2.277-6.591l-9.627-6.016-11.735 19.251 14.187 8.864 9.453-15.507z"></path>
</symbol>
<symbol id="icon-close-1" viewBox="0 0 32 32">
<path fill="none" stroke="#fff" style="stroke: var(--color1, #fff)" stroke-linejoin="round" stroke-linecap="round" stroke-miterlimit="4" stroke-width="4.5714" d="M29.333 2.667l-26.665 26.665M2.667 2.667l26.665 26.665"></path>
</symbol>
</defs>
</svg>
