<svg aria-hidden="true" style="position: absolute; width: 0; height: 0; overflow: hidden;" version="1.1" xmlns="http://www.w3.org/2000/svg" xmlns:xlink="http://www.w3.org/1999/xlink">
<defs>
<symbol id="icon-benefits-1" viewBox="0 0 32 32">
<path fill="#000" style="fill: var(--color1, #000)" d="M13.597 0.456l8.306 8.316 0.088-0.088c0.17-0.167 0.403-0.27 0.661-0.27 0.25 0 0.477 0.097 0.646 0.256l-0-0 0.963 0.963c0.337 0.337 0.348 0.85 0.092 1.207l-0.004 0.008-0.158 0.212 6.797 6.797c0.607 0.607 0.607 1.578 0 2.185l-10.406 10.406c-0.607 0.607-1.578 0.607-2.185 0l-4.907-4.907c-0.171 0.215-0.434 0.352-0.728 0.352-0.257 0-0.49-0.105-0.658-0.274l-2.869-2.869c-0.167-0.17-0.27-0.403-0.27-0.661 0-0.25 0.097-0.477 0.256-0.646l-0 0 0.007-0.008 0.085-0.084-8.306-8.306c-0.607-0.607-0.607-1.578 0-2.185l10.406-10.406c0.607-0.607 1.578-0.607 2.185 0v0.001zM20.86 9.813l-1.938-1.937c-0.119-0.122-0.285-0.199-0.469-0.199s-0.35 0.076-0.469 0.198l-3.95 3.951c-0.122 0.121-0.197 0.289-0.197 0.474s0.075 0.353 0.197 0.474l1.93 1.93 0.673-0.673-1.727-1.727 3.542-3.553 1.731 1.737 0.676-0.676zM15.258 15.41l-1.935-1.935c-0.119-0.122-0.285-0.198-0.469-0.198s-0.35 0.076-0.469 0.198l-3.962 3.962c-0.265 0.254-0.265 0.673 0 0.938l1.933 1.933 0.68-0.68-1.732-1.726 3.553-3.542 1.726 1.725 0.675-0.674zM8.079 6.834l3.95 3.95c0.265 0.265 0.684 0.265 0.938-0.011l3.95-3.95c0.122-0.117 0.199-0.281 0.199-0.463 0-0 0-0 0-0v0h0.011c0-0.166-0.066-0.342-0.199-0.474l-3.95-3.95c-0.121-0.123-0.289-0.198-0.474-0.198s-0.354 0.076-0.474 0.198l-0 0-3.95 3.961c-0.265 0.254-0.265 0.673 0 0.938zM2.485 12.428l3.95 3.95c0.265 0.265 0.684 0.265 0.938 0l3.95-3.95c0.123-0.117 0.199-0.281 0.199-0.464 0-0.004-0-0.008-0-0.012v0.001h0.011c0-0.177-0.066-0.342-0.199-0.474l-3.95-3.95c-0.119-0.122-0.285-0.199-0.469-0.199s-0.35 0.076-0.469 0.198l-3.962 3.962c-0.265 0.254-0.265 0.673 0 0.938zM10.135 22.088l2.606 2.607 10.633-14.389-0.723-0.723-12.516 12.504z"></path>
<path fill="#fd9222" style="fill: var(--color2, #fd9222)" d="M13.597 0.456l8.306 8.316 0.088-0.088c0.17-0.167 0.403-0.27 0.661-0.27 0.25 0 0.477 0.097 0.646 0.256l-0-0 0.963 0.963c0.337 0.337 0.348 0.85 0.092 1.207l-0.004 0.008-0.158 0.212 6.797 6.797c0.607 0.607 0.607 1.578 0 2.185l-10.406 10.406c-0.607 0.607-1.578 0.607-2.185 0l-4.907-4.907c-0.171 0.215-0.434 0.352-0.728 0.352-0.257 0-0.49-0.105-0.658-0.274l-2.869-2.869c-0.167-0.17-0.27-0.403-0.27-0.661 0-0.25 0.097-0.477 0.256-0.646l-0 0 0.007-0.008 0.085-0.084-8.306-8.306c-0.607-0.607-0.607-1.578 0-2.185l10.406-10.406c0.607-0.607 1.578-0.607 2.185 0v0.001zM20.86 9.813l-1.938-1.937c-0.119-0.122-0.285-0.199-0.469-0.199s-0.35 0.076-0.469 0.198l-3.95 3.951c-0.122 0.121-0.197 0.289-0.197 0.474s0.075 0.353 0.197 0.474l1.93 1.93 0.673-0.673-1.727-1.727 3.542-3.553 1.731 1.737 0.676-0.676zM15.258 15.41l-1.935-1.935c-0.119-0.122-0.285-0.198-0.469-0.198s-0.35 0.076-0.469 0.198l-3.962 3.962c-0.265 0.254-0.265 0.673 0 0.938l1.933 1.933 0.68-0.68-1.732-1.726 3.553-3.542 1.726 1.725 0.675-0.674zM8.079 6.834l3.95 3.95c0.265 0.265 0.684 0.265 0.938-0.011l3.95-3.95c0.122-0.117 0.199-0.281 0.199-0.463 0-0 0-0 0-0v0h0.011c0-0.166-0.066-0.342-0.199-0.474l-3.95-3.95c-0.121-0.123-0.289-0.198-0.474-0.198s-0.354 0.076-0.474 0.198l-0 0-3.95 3.961c-0.265 0.254-0.265 0.673 0 0.938zM2.485 12.428l3.95 3.95c0.265 0.265 0.684 0.265 0.938 0l3.95-3.95c0.123-0.117 0.199-0.281 0.199-0.464 0-0.004-0-0.008-0-0.012v0.001h0.011c0-0.177-0.066-0.342-0.199-0.474l-3.95-3.95c-0.119-0.122-0.285-0.199-0.469-0.199s-0.35 0.076-0.469 0.198l-3.962 3.962c-0.265 0.254-0.265 0.673 0 0.938zM10.135 22.088l2.606 2.607 10.633-14.389-0.723-0.723-12.516 12.504z"></path>
</symbol>
<symbol id="icon-benefits-2" viewBox="0 0 32 32">
<path fill="#fd9222" style="fill: var(--color2, #fd9222)" d="M16 0.762c-8.381 0-15.238 6.857-15.238 15.238s6.857 15.238 15.238 15.238 15.238-6.857 15.238-15.238-6.857-15.238-15.238-15.238zM16 28.191c-6.705 0-12.191-5.486-12.191-12.191s5.486-12.191 12.191-12.191 12.191 5.486 12.191 12.191-5.486 12.191-12.191 12.191z"></path>
<path fill="#fd9222" style="fill: var(--color2, #fd9222)" d="M17.981 14.477h-3.961c-0.762 0-1.371-0.61-1.371-1.371 0-0.762 0.609-1.371 1.371-1.371h5.638c0.914 0 1.525-0.61 1.525-1.525s-0.61-1.523-1.525-1.523h-2.133v-1.371c0-0.914-0.61-1.523-1.525-1.523s-1.523 0.609-1.523 1.523v1.371h-0.457c-2.44 0.002-4.417 1.979-4.419 4.419v0c0.003 2.439 1.98 4.416 4.419 4.418h3.809c0.762 0 1.371 0.61 1.371 1.371 0 0.762-0.609 1.371-1.371 1.371h-5.638c-0.914 0-1.525 0.61-1.525 1.525s0.61 1.523 1.525 1.523h2.286v1.371c0 0.914 0.609 1.523 1.523 1.523s1.525-0.609 1.525-1.523v-1.371h0.457c2.439-0.003 4.416-1.98 4.418-4.419v-0c-0.003-2.439-1.98-4.416-4.419-4.418h-0z"></path>
</symbol>
<symbol id="icon-benefits-3" viewBox="0 0 32 32">
<path fill="#fd9222" style="fill: var(--color2, #fd9222)" d="M15.452 14.106c-0.733-0.884-1.177-2.030-1.177-3.279 0-0.001 0-0.002 0-0.003v0c0-4.324 5.181-8.642 10.362-8.642 2.861 0.001 5.18 2.321 5.181 5.182v0c0 5.182-4.317 10.364-8.646 10.364-0.001 0-0.002 0-0.003 0-1.249 0-2.395-0.444-3.287-1.184l0.009 0.007-12.758 12.761c-0.308 0.287-0.723 0.463-1.178 0.463-0.955 0-1.73-0.775-1.73-1.73 0-0.456 0.176-0.87 0.464-1.179l-0.001 0.001 12.764-12.761z"></path>
</symbol>
<symbol id="icon-burger" viewBox="0 0 32 32">
<path stroke-linejoin="round" stroke-linecap="round" stroke-miterlimit="4" stroke-width="2.5" d="M4 16h24M4 8h24M4 24h24"></path>
</symbol>
<symbol id="icon-chocolate" viewBox="0 0 32 32">
<path fill="#fcf1e0" style="fill: var(--color3, #fcf1e0)" d="M3.944 20.076l10.777-17.424 0.64-0.675 8.235 5.491 0.057 3.315 2.009 3.28-8.88 14.076-12.839-8.063z"></path>
<path fill="none" stroke="#fd9222" style="stroke: var(--color2, #fd9222)" stroke-linejoin="round" stroke-linecap="round" stroke-miterlimit="4" stroke-width="2.6667" d="M21.635 23.88l-14.187-8.864M11.361 8.599l14.185 8.864M10.629 25.864l11.736-19.249M27.176 14.788c-3.040-1.899-4.233-3.383-2.277-6.591l-9.627-6.016-11.735 19.251 14.187 8.864 9.453-15.507z"></path>
</symbol>
<symbol id="icon-flag" viewBox="0 0 32 32">
<path fill="#ffd700" style="fill: var(--color4, #ffd700)" d="M31.832 4.058h-31.59v23.509h31.59v-23.509z"></path>
<path fill="#0057b7" style="fill: var(--color5, #0057b7)" d="M0.243 4.058h31.589v11.754h-31.59v-11.754z"></path>
</symbol>
<symbol id="icon-hero-scroll" viewBox="0 0 32 32">
<path d="M17.486 18.933c-0.38 0.381-0.905 0.618-1.486 0.618s-1.106-0.236-1.486-0.617l-0-0-9.6-9.616c-0.384-0.414-0.931-0.673-1.538-0.673-1.158 0-2.096 0.938-2.096 2.096 0 0.603 0.254 1.146 0.662 1.529l0.001 0.001 9.616 9.618c1.137 1.135 2.707 1.838 4.441 1.838s3.304-0.702 4.441-1.838l9.618-9.618c0.376-0.379 0.608-0.901 0.608-1.477 0-1.158-0.939-2.096-2.096-2.096-0.582 0-1.108 0.237-1.488 0.62l-0 0-9.595 9.616z"></path>
</symbol>
<symbol id="icon-instagram" viewBox="0 0 32 32">
<path stroke-linejoin="round" stroke-linecap="round" stroke-miterlimit="4" stroke-width="2.6667" d="M22.667 2.667h-13.333c-3.682 0-6.667 2.985-6.667 6.667v0 13.333c0 3.682 2.985 6.667 6.667 6.667v0h13.333c3.682 0 6.667-2.985 6.667-6.667v0-13.333c0-3.682-2.985-6.667-6.667-6.667v0z"></path>
<path stroke-linejoin="round" stroke-linecap="round" stroke-miterlimit="4" stroke-width="2.6667" d="M21.333 15.16c0.037 0.235 0.058 0.506 0.058 0.782 0 2.946-2.388 5.334-5.334 5.334-2.67 0-4.881-1.962-5.272-4.522l-0.004-0.030c-0.037-0.235-0.058-0.506-0.058-0.782 0-2.946 2.388-5.334 5.334-5.334 2.67 0 4.881 1.962 5.272 4.522l0.004 0.030z"></path>
<path stroke-linejoin="round" stroke-linecap="round" stroke-miterlimit="4" stroke-width="2.6667" d="M21.333 15.16c0.037 0.235 0.058 0.506 0.058 0.782 0 2.946-2.388 5.334-5.334 5.334-2.67 0-4.881-1.962-5.272-4.522l-0.004-0.030c-0.037-0.235-0.058-0.506-0.058-0.782 0-2.946 2.388-5.334 5.334-5.334 2.67 0 4.881 1.962 5.272 4.522l0.004 0.030zM23.333 8.667h0.013M23.333 8.667h0.013"></path>
</symbol>
<symbol id="icon-mastercard" viewBox="0 0 32 32">
<path fill="#ed0006" style="fill: var(--color6, #ed0006)" d="M16 22.834c-1.581 1.367-3.656 2.199-5.925 2.199-0.003 0-0.007 0-0.010 0h0.001c-5.054 0-9.15-4.12-9.15-9.204s4.096-9.204 9.15-9.204c2.264 0 4.337 0.828 5.935 2.199 1.581-1.367 3.656-2.199 5.925-2.199 0.003 0 0.007 0 0.010 0h-0c5.054 0 9.15 4.12 9.15 9.204 0 5.083-4.096 9.204-9.15 9.204-0.003 0-0.006 0-0.009 0-2.27 0-4.345-0.832-5.937-2.209l0.012 0.010z"></path>
<path fill="#f9a000" style="fill: var(--color7, #f9a000)" d="M16 22.834c1.973-1.698 3.215-4.199 3.215-6.99 0-0.005 0-0.011 0-0.016v0.001c0-0.004 0-0.010 0-0.015 0-2.791-1.242-5.291-3.203-6.98l-0.012-0.010c1.581-1.367 3.656-2.199 5.926-2.199 0.003 0 0.007 0 0.010 0h-0c5.054 0 9.15 4.12 9.15 9.204 0 5.083-4.096 9.204-9.15 9.204-0.003 0-0.006 0-0.009 0-2.27 0-4.345-0.832-5.937-2.209l0.012 0.010z"></path>
<path fill="#ff5e00" style="fill: var(--color8, #ff5e00)" d="M16 22.834c1.973-1.698 3.215-4.199 3.215-6.99 0-0.005 0-0.011 0-0.016v0.001c0-0.004 0-0.010 0-0.015 0-2.791-1.242-5.291-3.203-6.98l-0.012-0.010c-1.973 1.698-3.215 4.199-3.215 6.99 0 0.005 0 0.011 0 0.016v-0.001c0 0.004 0 0.010 0 0.015 0 2.791 1.242 5.291 3.203 6.98l0.012 0.010z"></path>
</symbol>
<symbol id="icon-play" viewBox="0 0 32 32">
<path d="M10.909 24v-15.273l14.545 7.636-14.545 7.636z"></path>
<path stroke-linejoin="miter" stroke-linecap="butt" stroke-miterlimit="4" stroke-width="0.7273" d="M31.636 16c0 8.636-7.001 15.636-15.636 15.636s-15.636-7.001-15.636-15.636c0-8.636 7.001-15.636 15.636-15.636s15.636 7.001 15.636 15.636z"></path>
</symbol>
<symbol id="icon-twitter" viewBox="0 0 32 32">
<path stroke-linejoin="round" stroke-linecap="round" stroke-miterlimit="4" stroke-width="2.6667" d="M30.667 4c-1.2 0.856-2.591 1.552-4.084 2.013l-0.103 0.027c-1.101-1.261-2.712-2.053-4.507-2.053-3.299 0-5.973 2.674-5.973 5.973 0 0.028 0 0.056 0.001 0.084l-0-0.004v1.333c-0.109 0.003-0.238 0.005-0.367 0.005-2.331 0-4.53-0.561-6.471-1.555l0.080 0.037c-2.093-1.053-4.56-3.563-5.908-5.48 0 0-4.667 12.953 7.333 18.287-2.442 1.677-5.462 2.679-8.716 2.679-0.217 0-0.433-0.004-0.648-0.013l0.031 0.001c12 6.667 26.667 0 26.667-15.333 0-0.372-0.037-0.741-0.107-1.107 1.323-1.305 2.293-2.963 2.758-4.822l0.015-0.071z"></path>
</symbol>
<symbol id="icon-x-close" viewBox="0 0 32 32">
<path stroke-linejoin="round" stroke-linecap="round" stroke-miterlimit="4" stroke-width="2.2857" d="M24 8l-16 16M8 8l16 16"></path>
</symbol>
</defs>
</svg>
